<?xml version="1.0" standalone="no"?>
<!DOCTYPE svg PUBLIC "-//W3C//DTD SVG 20010904//EN"
 "http://www.w3.org/TR/2001/REC-SVG-20010904/DTD/svg10.dtd">
<svg version="1.0" xmlns="http://www.w3.org/2000/svg"
 width="552.000000pt" height="137.000000pt" viewBox="0 0 552.000000 137.000000"
 preserveAspectRatio="xMidYMid meet">

<g transform="translate(0.000000,137.000000) scale(0.100000,-0.100000)"
fill="#000000" stroke="none">
<path d="M460 1201 c-101 -33 -146 -64 -134 -95 8 -22 21 -20 107 14 116 46
147 40 147 -28 0 -40 -9 -48 -70 -65 -201 -58 -325 -252 -291 -454 13 -76 47
-146 74 -151 29 -6 31 27 7 99 -72 220 62 429 286 446 61 5 84 2 136 -17 59
-21 62 -22 75 -4 7 10 13 21 13 25 0 15 -34 33 -93 49 -66 18 -74 28 -76 99
l-1 34 53 -6 c169 -17 337 -155 408 -335 20 -48 23 -76 23 -177 0 -138 -15
-190 -87 -298 -179 -265 -571 -297 -793 -65 -78 81 -109 136 -134 234 -33 126
-13 265 56 392 41 75 44 102 11 102 -26 0 -51 -30 -90 -106 -39 -77 -60 -169
-60 -264 0 -160 54 -283 177 -406 122 -121 242 -174 401 -174 98 0 177 19 270
65 132 65 238 186 292 335 23 65 27 90 27 190 -1 98 -4 126 -26 187 -64 177
-211 317 -392 372 -88 27 -236 28 -316 2z"/>
<path d="M4392 1044 c-42 -29 -45 -81 -8 -106 22 -15 76 -8 96 12 27 27 25 56
-5 85 -28 29 -51 31 -83 9z"/>
<path d="M2052 1008 c-9 -9 -12 -82 -12 -268 0 -286 4 -306 71 -342 37 -20
109 -24 140 -8 18 10 18 13 4 40 -11 21 -23 30 -41 30 -14 0 -36 11 -49 25
l-25 24 0 256 0 255 -38 0 c-21 0 -43 -5 -50 -12z"/>
<path d="M884 856 c-3 -8 8 -40 25 -73 16 -32 33 -70 37 -85 6 -27 5 -28 -32
-28 -22 0 -48 -3 -60 -6 -17 -5 -24 2 -38 39 -20 53 -69 107 -119 130 -97 46
-274 -10 -234 -74 15 -24 34 -24 72 1 84 56 211 -3 222 -104 7 -58 -1 -87 -33
-125 -73 -87 -225 -50 -255 62 -13 51 -26 67 -50 67 -30 0 -34 -42 -9 -97 27
-61 62 -98 123 -129 l48 -25 -3 -47 c-3 -47 -3 -47 -38 -45 -19 1 -46 3 -60 5
-21 2 -26 -2 -28 -24 -5 -45 42 -63 163 -63 85 0 107 4 148 24 51 25 71 50 61
75 -8 22 -37 20 -76 -4 -63 -38 -108 -20 -108 44 0 21 12 34 54 61 64 41 122
106 131 147 7 29 7 30 58 23 29 -4 55 -10 60 -14 4 -4 -3 -35 -15 -69 -21 -58
-21 -63 -5 -79 15 -16 18 -15 36 1 54 49 71 223 33 324 -30 77 -48 102 -78
102 -13 0 -27 -6 -30 -14z"/>
<path d="M1665 854 c-11 -3 -41 -14 -68 -26 l-48 -22 -15 23 c-12 17 -24 21
-52 19 l-37 -3 -3 -150 c-2 -82 0 -223 3 -312 l7 -163 49 0 49 0 -6 100 c-3
55 -3 100 0 100 4 0 20 -7 35 -15 120 -61 255 -26 314 83 53 98 46 205 -20
282 -53 62 -144 98 -208 84z m89 -113 c116 -77 68 -271 -68 -271 -107 0 -172
103 -127 204 34 79 128 111 195 67z"/>
<path d="M2485 853 c-83 -17 -141 -58 -178 -127 -30 -57 -30 -165 0 -222 25
-47 72 -91 120 -111 54 -22 143 -17 197 12 43 23 47 23 53 7 9 -24 23 -32 61
-32 l32 0 0 235 0 235 -40 0 c-27 0 -45 -6 -59 -22 l-21 -22 -47 22 c-52 24
-87 31 -118 25z m104 -108 c16 -8 40 -28 55 -45 67 -80 -6 -230 -112 -230 -44
0 -104 34 -126 71 -22 37 -23 107 -2 147 31 60 124 89 185 57z"/>
<path d="M3140 850 c-19 -4 -53 -16 -75 -27 l-39 -21 -11 22 c-8 15 -21 22
-53 24 l-42 3 0 -229 0 -230 34 -6 c63 -12 64 -9 68 149 l3 144 30 31 c33 35
91 56 129 46 14 -3 38 -17 53 -30 l28 -24 5 -159 5 -158 48 -3 47 -3 0 166 c0
116 -4 175 -14 198 -12 29 -77 96 -94 97 -4 1 -25 4 -47 8 -22 4 -56 5 -75 2z"/>
<path d="M5208 846 c-175 -48 -234 -255 -109 -389 66 -72 189 -96 295 -58 33
11 64 25 69 30 8 8 -16 81 -27 81 -3 0 -28 -9 -56 -20 -59 -23 -130 -26 -168
-6 -29 15 -68 53 -61 60 4 4 330 76 343 76 3 0 6 16 6 35 0 129 -154 229 -292
191z m125 -92 c29 -14 76 -70 65 -78 -1 -2 -52 -13 -113 -25 -60 -13 -120 -25
-132 -28 -27 -6 -30 9 -9 58 33 78 113 109 189 73z"/>
<path d="M3513 835 c-3 -9 -4 -84 -1 -168 3 -139 6 -156 28 -196 36 -64 95
-94 176 -89 47 3 72 11 105 32 34 23 46 26 58 17 67 -49 168 -65 234 -37 42
17 93 76 107 123 7 23 10 97 8 183 l-3 145 -47 3 -47 3 -3 -155 c-3 -139 -5
-158 -24 -183 -46 -61 -134 -50 -167 20 -13 27 -17 65 -17 176 l0 141 -50 0
-50 0 0 -153 c0 -167 -5 -183 -60 -212 -44 -23 -78 -19 -109 13 -28 27 -28 30
-36 190 l-7 162 -44 0 c-31 0 -46 -5 -51 -15z"/>
<path d="M4377 843 c-9 -8 -9 -375 -1 -425 6 -37 8 -38 50 -38 38 0 43 3 47
28 4 22 3 364 -2 425 -1 13 -10 17 -44 17 -24 0 -47 -3 -50 -7z"/>
<path d="M4664 825 c-81 -40 -106 -113 -64 -183 24 -39 60 -56 150 -72 87 -15
120 -29 120 -51 0 -47 -119 -66 -211 -34 -52 19 -63 15 -77 -24 -13 -37 -6
-43 67 -65 105 -31 234 -15 288 36 50 47 47 140 -7 179 -14 11 -68 28 -120 39
-109 23 -142 46 -117 84 20 30 70 39 144 26 34 -6 69 -13 77 -16 18 -7 40 54
26 71 -16 19 -91 35 -162 35 -48 0 -77 -6 -114 -25z"/>
<path d="M582 668 c-15 -15 -15 -51 0 -66 18 -18 56 -14 68 7 14 27 13 37 -6
55 -18 19 -45 21 -62 4z"/>
</g>
</svg>
