<?xml version="1.0" standalone="no"?>
<!DOCTYPE svg PUBLIC "-//W3C//DTD SVG 20010904//EN"
 "http://www.w3.org/TR/2001/REC-SVG-20010904/DTD/svg10.dtd">
<svg version="1.0" xmlns="http://www.w3.org/2000/svg"
 width="488.000000pt" height="540.000000pt" viewBox="0 0 488.000000 540.000000"
 preserveAspectRatio="xMidYMid meet">

<g transform="translate(0.000000,540.000000) scale(0.100000,-0.100000)"
fill="#000000" stroke="none">
<path d="M2160 4805 c-287 -40 -578 -140 -763 -262 -117 -78 -142 -134 -93
-217 30 -52 64 -71 110 -63 19 3 103 38 186 77 242 114 489 185 619 178 l56
-3 3 -207 2 -207 -37 -9 c-21 -6 -72 -18 -113 -27 -749 -174 -1290 -826 -1290
-1555 0 -504 222 -1007 395 -894 31 20 65 74 65 104 0 12 -27 95 -59 184 -76
208 -98 293 -112 430 -25 268 17 507 132 738 70 143 141 242 243 343 194 192
418 310 678 360 274 52 539 15 827 -115 89 -40 96 -42 120 -27 51 30 114 147
103 189 -8 31 -114 104 -200 137 -73 28 -268 80 -355 95 -45 8 -60 29 -83 116
-12 46 -17 106 -18 205 l-1 140 90 -1 c255 -3 605 -122 880 -298 101 -64 253
-185 352 -279 337 -320 583 -857 613 -1340 24 -377 -54 -740 -235 -1099 -79
-157 -114 -211 -214 -335 -341 -424 -834 -694 -1393 -763 -143 -18 -474 -7
-608 19 -215 42 -326 79 -516 172 -460 226 -854 650 -1027 1109 -103 272 -158
607 -130 792 7 46 17 139 22 208 23 314 111 583 283 861 77 123 123 212 132
254 13 59 -56 135 -123 135 -43 0 -107 -47 -164 -122 -270 -352 -447 -893
-447 -1358 2 -685 293 -1317 820 -1781 177 -157 291 -235 493 -338 344 -176
681 -250 1087 -238 215 6 339 23 505 67 470 125 811 322 1135 656 308 318 513
712 623 1194 30 133 30 139 31 420 0 279 -2 313 -38 512 -17 95 -65 250 -118
383 -76 191 -204 408 -344 582 -90 110 -317 331 -426 415 -305 231 -686 399
-1034 454 -144 22 -529 27 -664 9z"/>
<path d="M3557 3381 c-39 -37 -42 -43 -42 -93 0 -48 7 -66 72 -178 104 -182
111 -195 138 -261 26 -64 52 -206 42 -231 -4 -12 -38 -16 -174 -21 -121 -3
-178 -9 -204 -20 -49 -21 -59 -12 -94 88 -37 105 -107 243 -162 316 -96 128
-257 247 -427 315 -216 88 -503 65 -707 -56 -113 -67 -189 -160 -189 -230 0
-53 104 -150 160 -150 12 0 57 25 100 55 163 115 275 147 433 126 145 -19 272
-80 372 -178 105 -103 155 -221 162 -390 5 -101 3 -120 -20 -195 -64 -205
-182 -322 -403 -400 -73 -26 -105 -31 -179 -32 -87 -1 -93 1 -189 47 -158 75
-283 191 -335 308 -11 24 -29 87 -41 139 -36 167 -77 220 -173 228 -68 5 -93
-8 -118 -61 -39 -87 -13 -223 80 -412 67 -136 127 -220 204 -283 75 -63 108
-83 274 -166 86 -44 154 -84 162 -97 20 -33 25 -133 12 -229 -12 -91 -33 -137
-73 -160 -24 -13 -34 -13 -95 4 -37 10 -97 31 -133 48 -94 44 -128 46 -168 13
-18 -15 -39 -40 -47 -56 -20 -38 -19 -106 3 -149 54 -108 337 -190 657 -190
159 0 284 19 435 66 273 85 432 205 417 315 -9 71 -89 148 -141 135 -11 -3
-81 -39 -154 -81 -159 -91 -276 -128 -331 -105 -71 29 -116 142 -109 276 5
110 -1 104 280 268 105 61 238 179 314 277 52 68 125 211 149 294 10 33 21 64
25 68 7 8 62 4 312 -24 135 -15 136 -17 114 -115 -9 -44 -41 -135 -70 -204
-84 -196 -91 -232 -61 -289 16 -31 86 -71 126 -71 29 0 70 26 97 60 53 68 137
278 177 445 47 197 32 548 -34 759 -61 195 -143 378 -196 438 -47 54 -94 78
-152 78 -49 0 -58 -4 -96 -39z"/>
<path d="M2359 2621 c-84 -53 -115 -137 -85 -227 20 -58 41 -85 87 -113 94
-57 234 8 273 127 28 85 -14 173 -104 220 -61 31 -115 29 -171 -7z"/>
</g>
</svg>
